<svg width="22" height="16" viewBox="0 0 22 16" fill="none" xmlns="http://www.w3.org/2000/svg">
<path d="M19.802 6.962C20.2704 7.582 20.2704 8.419 19.802 9.038C18.3265 10.987 14.7865 15 10.6535 15C6.52048 15 2.98046 10.987 1.50495 9.038C1.27704 8.74113 1.15332 8.37592 1.15332 8C1.15332 7.62408 1.27704 7.25887 1.50495 6.962C2.98046 5.013 6.52048 1 10.6535 1C14.7865 1 18.3265 5.013 19.802 6.962V6.962Z" stroke="#777777" stroke-width="2" stroke-linecap="round" stroke-linejoin="round"/>
<path d="M10.6533 11C12.2908 11 13.6182 9.65685 13.6182 8C13.6182 6.34315 12.2908 5 10.6533 5C9.01588 5 7.68848 6.34315 7.68848 8C7.68848 9.65685 9.01588 11 10.6533 11Z" stroke="#777777" stroke-width="2" stroke-linecap="round" stroke-linejoin="round"/>
</svg>
