<svg width="18" height="18" viewBox="0 0 18 18" fill="none" xmlns="http://www.w3.org/2000/svg">
<path d="M2.63758 14.0674V17.3785L3.96956 16.5793L8.15629 14.0674H12.3087C13.2785 14.0674 14.0671 13.2788 14.0671 12.309V5.27548C14.0671 4.30573 13.2785 3.51709 12.3087 3.51709H1.75839C0.788638 3.51709 0 4.30573 0 5.27548V12.309C0 13.2788 0.788638 14.0674 1.75839 14.0674H2.63758ZM1.75839 5.27548H12.3087V12.309H7.66921L4.39597 14.2732V12.309H1.75839V5.27548Z" fill="#777777"/>
<path d="M15.8256 0H5.27523C4.30548 0 3.51685 0.788638 3.51685 1.75839H14.0672C15.0369 1.75839 15.8256 2.54703 15.8256 3.51678V10.5503C16.7953 10.5503 17.584 9.7617 17.584 8.79195V1.75839C17.584 0.788638 16.7953 0 15.8256 0Z" fill="#777777"/>
</svg>
