<svg width="23" height="16" viewBox="0 0 23 16" fill="none" xmlns="http://www.w3.org/2000/svg">
<path d="M9.84598 15.5437H2.02337V10.9092C0.732926 9.71949 0 8.05614 0 6.28865C0 2.82099 2.82125 0 6.28865 0C9.11963 0 11.6151 1.90687 12.3567 4.6374L12.3798 4.72155L12.4266 5.75269L14.3245 8.41406L12.6562 9.62587V10.5526C12.6562 11.6687 11.7481 12.577 10.6312 12.577H9.84625L9.84598 15.5437ZM3.60125 13.9658H8.2681V10.9997H10.631C10.8777 10.9997 11.078 10.799 11.078 10.5529V8.82246L12.1315 8.05719L10.8708 6.28996L10.8111 4.97085C10.2289 2.96905 8.38092 1.57841 6.28839 1.57841C3.69093 1.57841 1.57762 3.69172 1.57762 6.28917C1.57762 7.70927 2.2093 9.03942 3.31092 9.93855L3.60099 10.1752L3.60125 13.9658Z" fill="#777777"/>
<path d="M16.0816 11.2538L14.9661 10.1382C15.6777 9.42631 15.6777 8.26814 14.9658 7.55599L16.0819 6.44043C17.4086 7.76743 17.4086 9.92702 16.0816 11.2538Z" fill="#777777"/>
<path d="M18.2118 12.9342L17.0962 11.8186C18.7343 10.1805 18.7343 7.51467 17.0962 5.8763L18.2118 4.76074C20.4647 7.01422 20.4647 10.681 18.2118 12.9342Z" fill="#777777"/>
<path d="M20.6586 14.5092L19.5425 13.3937C22.0489 10.8867 22.0489 6.80784 19.543 4.30111L20.6586 3.18555C23.7807 6.30686 23.7807 11.3869 20.6586 14.5092Z" fill="#777777"/>
</svg>
