<svg width="15" height="15" viewBox="0 0 15 15" fill="none" xmlns="http://www.w3.org/2000/svg">
<path d="M14.5 7.37502C14.5026 8.36492 14.2713 9.34144 13.825 10.225C13.2958 11.2838 12.4823 12.1744 11.4756 12.797C10.4689 13.4196 9.30868 13.7496 8.125 13.75C7.1351 13.7526 6.15859 13.5213 5.275 13.075L1 14.5L2.425 10.225C1.9787 9.34144 1.74742 8.36492 1.75 7.37502C1.75046 6.19134 2.08046 5.03116 2.70304 4.02443C3.32562 3.01771 4.21619 2.2042 5.275 1.67502C6.15859 1.22872 7.1351 0.99744 8.125 1.00002H8.5C10.0633 1.08627 11.5398 1.74609 12.6469 2.85317C13.7539 3.96024 14.4138 5.43676 14.5 7.00002V7.37502Z" stroke="#5C5C5C" stroke-linecap="round" stroke-linejoin="round"/>
</svg>
