<svg width="22" height="20" viewBox="0 0 22 20" fill="none" xmlns="http://www.w3.org/2000/svg">
<path fill-rule="evenodd" clip-rule="evenodd" d="M10.5272 0.122908C10.8225 -0.0409694 11.1775 -0.0409694 11.4728 0.122908L21.4728 5.67299C21.7974 5.85318 22 6.20343 22 6.58456V12.1346C22 12.706 21.5523 13.1691 21 13.1691C20.4477 13.1691 20 12.706 20 12.1346V7.20352L11 2.20845L3.11522 6.58456L11.0269 10.9756L15.7701 8.63908C16.0799 8.48645 16.4437 8.50883 16.7339 8.69836C17.024 8.88788 17.2 9.21808 17.2 9.57307V15.5501C17.2 16.909 16.2748 18.0376 15.1959 18.7649C14.0779 19.5186 12.5871 20 11 20C9.41293 20 7.92206 19.5186 6.80405 18.7649C5.72517 18.0376 4.8 16.909 4.8 15.5501V9.86756L0.527235 7.49614C0.202582 7.31595 0 6.9657 0 6.58456C0 6.20343 0.202582 5.85318 0.527235 5.67299L10.5272 0.122908ZM6.8 10.9776V15.5501C6.8 15.8989 7.07483 16.478 7.89595 17.0315C8.67794 17.5586 9.78707 17.931 11 17.931C12.2129 17.931 13.3221 17.5586 14.1041 17.0315C14.9252 16.478 15.2 15.8989 15.2 15.5501V11.2115L11.4299 13.0686C11.1427 13.2101 10.8076 13.2018 10.5272 13.0462L6.8 10.9776Z" fill="white"/>
</svg>
