<svg width="21" height="22" viewBox="0 0 21 22" fill="none" xmlns="http://www.w3.org/2000/svg">
<path d="M7.26482 6.84936L9.73676 1.51391C9.80871 1.3595 9.91938 1.22963 10.0564 1.13885C10.1933 1.04808 10.3512 1 10.5122 1C10.6732 1 10.8311 1.04808 10.9681 1.13885C11.105 1.22963 11.2157 1.3595 11.2877 1.51391L13.7596 6.84936L19.2858 7.71005C19.4452 7.73374 19.5952 7.80499 19.7186 7.91565C19.842 8.02632 19.9339 8.17195 19.9838 8.33592C20.0337 8.49989 20.0396 8.67559 20.0008 8.84297C19.962 9.01036 19.8801 9.16268 19.7644 9.28255L15.7663 13.433L16.7101 19.2967C16.831 20.0493 16.0888 20.6224 15.4542 20.2675L10.5122 17.4978L5.56929 20.2675C4.9356 20.6235 4.19345 20.0493 4.31429 19.2957L5.25815 13.432L1.26005 9.28153C1.1449 9.16157 1.06347 9.00941 1.025 8.84232C0.986526 8.67524 0.99256 8.49994 1.04241 8.33634C1.09227 8.17275 1.18394 8.02743 1.30702 7.9169C1.4301 7.80636 1.57963 7.73506 1.73864 7.71107L7.26482 6.84936V6.84936Z" fill="#FFB800" stroke="#FFB800" stroke-width="1.5" stroke-linecap="round" stroke-linejoin="round"/>
</svg>
